<svg version="1.1" id="Laag_1" xmlns="http://www.w3.org/2000/svg" x="0" y="0" viewBox="0 0 500 500" xml:space="preserve"><style>.st2{fill:#111}</style><path d="M319.5 255.4c23.2 15 31.6 35.6 25.1 61.7-3 12.2-8.1 22.6-15.4 31.1-7.3 8.5-15.8 15.4-25.6 20.6-9.8 5.2-20.4 9.1-31.9 11.4-11.5 2.4-22.9 3.5-34.4 3.5-5.6 0-11.4-.3-17.5-1s-12.2-1.8-18.2-3.5c-6-1.6-11.7-3.7-17.2-6.4s-10.4-5.9-14.8-9.8c-1.3-.6-2.9-1-4.8-1-2.8 0-6.1.6-10 1.7-3.9 1.1-8 2.6-12.3 4.5-4.3 1.9-8.9 4-13.6 6.3-4.7 2.4-9.3 4.8-13.7 7.4-10.5 5.8-21.5 12.4-32.9 19.8l133-97.5c-2.9 12.1-1.9 20.9 2.9 26.3 5 5.7 14.8 8.5 29.4 8.5 3.9 0 7.7-.4 11.4-1.2 3.7-.8 7.3-2.1 10.5-3.8 3.3-1.7 6.1-4 8.5-6.7 2.4-2.8 4.1-6.2 5.1-10.3 1.9-7.7.6-13.7-3.9-18-4.7-4.5-14-9.2-27.8-14-2.4-.7-4.6-1.6-6.7-2.4l52.4-38.6c4.5 1.8 8.6 3.7 12.3 5.5 3.7 2 7.1 3.9 10.1 5.9zM230 282l-76.3 56.1c-2.9-10.5-2.8-22.1.3-34.9l.3-1.1h17.8v-.2c6-.1 12.2-.9 18.6-2.4 6-1.3 12.3-3.2 19-5.9 6.7-2.6 13.4-6.4 20.3-11.6zm-12.4-11.2c-28.5-15.2-39.4-36.1-32.8-62.8 2.9-11.8 8.2-21.9 16.1-30.3 7.8-8.4 16.9-15.3 27.3-20.6 10.4-5.4 21.5-9.3 33.3-11.8 11.8-2.5 23.2-3.8 34.1-3.8 7 0 14 .6 21.2 1.7 7.2 1.1 14 3 20.5 5.7s12.3 6.3 17.6 10.8c5.2 4.6 9.4 10.3 12.5 17.1.3.5.6 1.1.8 1.7.2.6.4 1.2.5 1.7l-71.2 52.4c2.9-2.6 5.2-5.2 6.8-7.9 1.7-2.7 2.9-5.3 3.6-7.9l.5-1.9c2.4-9 1.3-15.8-3.2-20.6-4.6-4.9-11.8-7.4-21.5-7.4-3.6 0-7.5.4-11.6 1.2-4.1.8-7.9 2.1-11.5 3.9-3.6 1.8-6.7 4.1-9.4 6.9-2.7 2.8-4.6 6.3-5.6 10.4-1.3 5.4.5 10.2 5.5 14.6 5.5 4.7 15.7 9.6 30.8 14.6 1 .3 1.8.6 2.7.9.8.3 1.6.6 2.3.9l-52.4 38.4c-3.3-1.3-6.4-2.6-9.2-3.9-2.6-1.4-5.2-2.7-7.7-4zm116.8-54l71.2-52.2c-.6.8-2.1 2.4-4.3 4.8-2.2 2.5-4.6 5.2-7.3 8.3-2.7 3.1-5.4 6.2-8 9.5-2.7 3.3-4.8 6-6.4 8.3-1.7 2.5-3.2 5-4.4 7.5-1.2 2.5-2.2 4.8-3 6.8-.9 2.4-1.6 4.7-2.1 6.9h-.6v.2h-35.1z" fill="#ff8910" opacity=".69"/><path class="st2" d="M114.5 134.5h-12.9v-17H149v17h-12.9v67.3h-21.7v-67.3zM172.8 171.1l-15.7-53.6h20.3l6.3 33.4h.2l5.3-33.4h20.3l-15.7 53.6v30.7h-21v-30.7zM219.9 117.6h28.4c12.5 0 19.9 6.1 19.9 19.2v10.4c0 12.2-4.5 20.3-17.9 20.3h-9.4v34.3h-21v-84.2zm21 35.7h3.8c3.8 0 5.2-1.8 5.2-5.1v-11.4c0-3.3-1.4-5.1-5.2-5.1h-3.8v21.6zM280.1 117.6h36.7v17h-15V150h14v16.3h-14v18.5H318v17h-37.9v-84.2z"/></svg>